<svg width="196" height="32" viewBox="0 0 196 32" fill="none" xmlns="http://www.w3.org/2000/svg">
<path d="M31 7.35898L27.4779 7.29676L25.692 4.40939L24.8083 7.76347L21 8.41685L24.4599 9.87921L24.771 10.0099L24.0367 13.1835L26.1898 11.2731L29.687 13.1835L28.2744 9.3316L31 7.35898Z" fill="#E43A12"/>
<path d="M4.19731 5.03806L6.60556 13.3426L1 19.6955L9.67831 19.3633L13.8306 28L15.2008 18.8651V18.0346L23.2977 17.4948L17.1939 13.7162L19.1869 4L10.8824 10.1453L4.19731 5.03806Z" fill="#E43A12"/>
<path d="M8.06548 29.625L6.79762 27.4881L7.88094 25.3452L5.52976 26.0536L3.74404 24L4.14284 26.625L4.17857 26.8571L2 27.5952L3.94046 28.1905L4.08927 31L5.87499 28.7321L8.06548 29.625Z" fill="#E43A12"/>
<path d="M21.7911 22.3185L22.387 24.3733L21 25.9452L23.1473 25.863L24.1747 28L24.4213 25.6884V25.4829L26.4247 25.339L24.9144 24.4144L25.4075 22L23.3528 23.5308L21.7911 22.3185Z" fill="#E43A12"/>
<path d="M44.668 16.6484C44.3555 16.3229 44.0234 16.0234 43.6719 15.75C43.3203 15.4635 42.9688 15.1836 42.6172 14.9102C42.2786 14.6237 41.9466 14.3307 41.6211 14.0312C41.2956 13.7188 40.9961 13.3802 40.7227 13.0156C40.4362 12.638 40.2083 12.2279 40.0391 11.7852C39.8828 11.3294 39.8568 10.8607 39.9609 10.3789C40.0651 9.85807 40.319 9.40234 40.7227 9.01172C41.1263 8.62109 41.5625 8.3151 42.0312 8.09375C42.5391 7.8724 43.0534 7.72266 43.5742 7.64453C44.0951 7.55339 44.6224 7.5013 45.1562 7.48828C45.6901 7.46224 46.224 7.46224 46.7578 7.48828C47.3047 7.5013 47.8451 7.49479 48.3789 7.46875C48.6263 7.45573 48.8086 7.52734 48.9258 7.68359C49.056 7.83984 49.1211 8.01562 49.1211 8.21094C49.1211 8.40625 49.056 8.58854 48.9258 8.75781C48.8086 8.91406 48.6263 8.9987 48.3789 9.01172C48.0013 9.03776 47.6237 9.05078 47.2461 9.05078C46.8815 9.03776 46.5104 9.02474 46.1328 9.01172C45.625 8.9987 45.1107 9.00521 44.5898 9.03125C44.082 9.05729 43.5807 9.16146 43.0859 9.34375C42.9167 9.40885 42.7344 9.49349 42.5391 9.59766C42.3438 9.6888 42.1615 9.80599 41.9922 9.94922C41.8359 10.0924 41.7057 10.2487 41.6016 10.418C41.4974 10.5872 41.4518 10.7695 41.4648 10.9648C41.4779 11.1471 41.5234 11.3294 41.6016 11.5117C41.6797 11.681 41.7773 11.8503 41.8945 12.0195C42.0247 12.1888 42.1615 12.3516 42.3047 12.5078C42.4479 12.6641 42.5846 12.8073 42.7148 12.9375C43.0143 13.237 43.3268 13.5104 43.6523 13.7578C43.9779 14.0052 44.3034 14.2591 44.6289 14.5195C44.9674 14.793 45.306 15.099 45.6445 15.4375C45.9961 15.763 46.2956 16.1211 46.543 16.5117C46.8034 16.8893 46.9922 17.293 47.1094 17.7227C47.2396 18.1523 47.2591 18.6081 47.168 19.0898C47.0768 19.5456 46.901 19.9362 46.6406 20.2617C46.3932 20.5742 46.0938 20.8607 45.7422 21.1211C45.4036 21.3685 45.0391 21.5964 44.6484 21.8047C44.2708 22 43.9062 22.2018 43.5547 22.4102C43.3333 22.5404 43.125 22.5664 42.9297 22.4883C42.7474 22.4102 42.6042 22.2865 42.5 22.1172C42.4089 21.9479 42.3698 21.7656 42.3828 21.5703C42.4089 21.362 42.5326 21.1927 42.7539 21.0625C43.0664 20.8802 43.3789 20.7109 43.6914 20.5547C44.0039 20.3984 44.3099 20.2227 44.6094 20.0273C44.8958 19.8451 45.1432 19.6302 45.3516 19.3828C45.5729 19.1224 45.6836 18.8229 45.6836 18.4844C45.6706 18.1458 45.5599 17.8203 45.3516 17.5078C45.1562 17.1953 44.9284 16.9089 44.668 16.6484ZM55.0391 15.1836C55.2865 15.1836 55.4688 15.2617 55.5859 15.418C55.7161 15.5742 55.7812 15.75 55.7812 15.9453C55.7812 16.1406 55.7161 16.3229 55.5859 16.4922C55.4688 16.6484 55.2865 16.7266 55.0391 16.7266C54.7266 16.7396 54.4141 16.7396 54.1016 16.7266C53.8021 16.7005 53.5026 16.6745 53.2031 16.6484C53.2161 17.6771 53.1966 18.7057 53.1445 19.7344C53.1055 20.763 53.0013 21.7852 52.832 22.8008C52.806 23.0221 52.6888 23.1849 52.4805 23.2891C52.2721 23.3932 52.0703 23.4128 51.875 23.3477C51.6536 23.2826 51.4974 23.1589 51.4062 22.9766C51.3281 22.8073 51.3086 22.612 51.3477 22.3906C51.5039 21.401 51.5885 20.4115 51.6016 19.4219C51.6276 18.4323 51.6276 17.4362 51.6016 16.4336C51.1068 16.3555 50.6055 16.2773 50.0977 16.1992C49.5898 16.1081 49.0885 16.0299 48.5938 15.9648C48.3724 15.9388 48.2161 15.8216 48.125 15.6133C48.0208 15.3919 47.9948 15.1901 48.0469 15.0078C48.112 14.7865 48.2357 14.6367 48.418 14.5586C48.6003 14.4674 48.7956 14.4349 49.0039 14.4609C49.4336 14.526 49.8633 14.5977 50.293 14.6758C50.7227 14.7409 51.1589 14.806 51.6016 14.8711C51.5885 14.806 51.582 14.7083 51.582 14.5781C51.582 13.4062 51.5755 12.2474 51.5625 11.1016C51.5625 9.95573 51.6211 8.79688 51.7383 7.625C51.7643 7.41667 51.8424 7.23438 51.9727 7.07812C52.1159 6.92188 52.2982 6.84375 52.5195 6.84375C52.7148 6.84375 52.8971 6.92188 53.0664 7.07812C53.2487 7.23438 53.3268 7.41667 53.3008 7.625C53.1706 8.875 53.1055 10.1185 53.1055 11.3555C53.1185 12.5794 53.138 13.8229 53.1641 15.0859C53.4766 15.112 53.7891 15.138 54.1016 15.1641C54.4141 15.1771 54.7266 15.1836 55.0391 15.1836ZM58.2812 21.4727C57.8385 21.2773 57.487 21.0104 57.2266 20.6719C56.9792 20.3203 56.8034 19.9362 56.6992 19.5195C56.6081 19.1029 56.582 18.6732 56.6211 18.2305C56.6602 17.7747 56.7513 17.3385 56.8945 16.9219C57.0117 16.5964 57.1419 16.2578 57.2852 15.9062C57.4414 15.5547 57.6237 15.2292 57.832 14.9297C58.0404 14.6302 58.2878 14.3763 58.5742 14.168C58.8607 13.9466 59.1992 13.8034 59.5898 13.7383C59.9935 13.6732 60.3971 13.6536 60.8008 13.6797C61.2174 13.6927 61.6276 13.7318 62.0312 13.7969C62.2135 13.8229 62.3893 13.8685 62.5586 13.9336C62.7279 13.9857 62.8971 14.0443 63.0664 14.1094C63.0794 13.9141 63.1641 13.7513 63.3203 13.6211C63.4896 13.4909 63.6654 13.4258 63.8477 13.4258C64.069 13.4258 64.2448 13.5039 64.375 13.6602C64.5182 13.8034 64.6029 13.9792 64.6289 14.1875C64.694 14.7865 64.7201 15.3854 64.707 15.9844C64.707 16.5833 64.6875 17.1823 64.6484 17.7812C64.6224 18.3802 64.5964 18.9792 64.5703 19.5781C64.5573 20.1771 64.5638 20.776 64.5898 21.375C64.6029 21.6224 64.5247 21.8112 64.3555 21.9414C64.1992 22.0586 64.0234 22.1172 63.8281 22.1172C63.6328 22.1172 63.4505 22.0586 63.2812 21.9414C63.125 21.8112 63.0404 21.6224 63.0273 21.375C62.2852 21.6875 61.4974 21.8698 60.6641 21.9219C59.8307 21.9609 59.0365 21.8112 58.2812 21.4727ZM58.418 17.2344C58.3398 17.4688 58.2682 17.7357 58.2031 18.0352C58.138 18.3346 58.1185 18.6211 58.1445 18.8945C58.1706 19.168 58.2552 19.4219 58.3984 19.6562C58.5417 19.8776 58.776 20.0339 59.1016 20.125C59.7656 20.3333 60.4297 20.3919 61.0938 20.3008C61.7708 20.2096 62.4023 19.9753 62.9883 19.5977C63.0404 18.9596 63.0794 18.3411 63.1055 17.7422C63.1445 17.1432 63.1576 16.5378 63.1445 15.9258C62.9232 15.7826 62.6953 15.6589 62.4609 15.5547C62.2396 15.4375 61.9922 15.3594 61.7188 15.3203C61.4453 15.2812 61.1523 15.2552 60.8398 15.2422C60.5404 15.2161 60.2474 15.2161 59.9609 15.2422C59.9349 15.2422 59.8633 15.2617 59.7461 15.3008C59.6419 15.3268 59.5833 15.3464 59.5703 15.3594C59.4401 15.4245 59.3229 15.5286 59.2188 15.6719C59.0495 15.9062 58.8997 16.1602 58.7695 16.4336C58.6393 16.694 58.5221 16.9609 58.418 17.2344ZM66.8555 14.0508C66.8685 13.8034 66.9596 13.6211 67.1289 13.5039C67.2982 13.3737 67.4805 13.3086 67.6758 13.3086C67.8711 13.3086 68.0404 13.3737 68.1836 13.5039C68.3398 13.6211 68.4115 13.8034 68.3984 14.0508C68.3984 14.1289 68.3919 14.2135 68.3789 14.3047C68.3789 14.3828 68.3789 14.4609 68.3789 14.5391C68.7956 14.3307 69.2318 14.1549 69.6875 14.0117C70.1562 13.8555 70.6185 13.7578 71.0742 13.7188C71.543 13.6797 71.9922 13.7188 72.4219 13.8359C72.8646 13.9401 73.2682 14.1484 73.6328 14.4609C73.8151 14.6302 73.8932 14.8125 73.8672 15.0078C73.8542 15.2031 73.776 15.3724 73.6328 15.5156C73.5026 15.6458 73.3333 15.7305 73.125 15.7695C72.9167 15.7956 72.7148 15.7305 72.5195 15.5742C72.3763 15.457 72.2135 15.3724 72.0312 15.3203C71.862 15.2682 71.6732 15.2487 71.4648 15.2617C71.2695 15.2617 71.0677 15.2812 70.8594 15.3203C70.6641 15.3594 70.4753 15.4049 70.293 15.457C69.6029 15.6784 68.9583 15.9714 68.3594 16.3359C68.3854 16.974 68.4245 17.612 68.4766 18.25C68.5286 18.7839 68.5742 19.3372 68.6133 19.9102C68.6523 20.4701 68.763 21.0039 68.9453 21.5117C69.0234 21.7461 69.0039 21.9414 68.8867 22.0977C68.7826 22.2669 68.6328 22.3776 68.4375 22.4297C68.2552 22.4818 68.0599 22.4688 67.8516 22.3906C67.6562 22.3125 67.5195 22.1562 67.4414 21.9219C67.3372 21.6224 67.2656 21.3164 67.2266 21.0039C67.1875 20.6914 67.1484 20.3789 67.1094 20.0664C67.0833 19.7669 67.0508 19.4674 67.0117 19.168C66.9857 18.8555 66.9596 18.5495 66.9336 18.25C66.8685 17.5469 66.8229 16.8503 66.7969 16.1602C66.7839 15.457 66.8034 14.7539 66.8555 14.0508ZM75.5078 17.6641C75.1693 17.4167 74.9284 17.1107 74.7852 16.7461C74.6419 16.3685 74.6354 15.9714 74.7656 15.5547C74.8958 15.1771 75.0977 14.8385 75.3711 14.5391C75.6445 14.2396 75.957 13.9987 76.3086 13.8164C76.6992 13.6081 77.1159 13.4453 77.5586 13.3281C78.0013 13.2109 78.4505 13.1458 78.9062 13.1328C79.362 13.1198 79.8112 13.1654 80.2539 13.2695C80.7096 13.3607 81.1393 13.5104 81.543 13.7188C81.7643 13.8359 81.888 13.9922 81.9141 14.1875C81.9401 14.3828 81.901 14.5651 81.7969 14.7344C81.7057 14.9036 81.5625 15.0273 81.3672 15.1055C81.1719 15.1836 80.9635 15.1641 80.7422 15.0469C80.4297 14.8776 80.0781 14.7669 79.6875 14.7148C79.2969 14.6628 78.8997 14.6628 78.4961 14.7148C78.1055 14.7539 77.7344 14.8516 77.3828 15.0078C77.0312 15.1641 76.7383 15.3659 76.5039 15.6133C76.4388 15.6784 76.3932 15.724 76.3672 15.75C76.3542 15.776 76.3281 15.8346 76.2891 15.9258L76.25 16.1406C76.2891 16.2578 76.3216 16.3294 76.3477 16.3555C76.6081 16.5247 76.875 16.6354 77.1484 16.6875C77.4349 16.7266 77.7214 16.7526 78.0078 16.7656C78.4115 16.7917 78.8216 16.8177 79.2383 16.8438C79.668 16.8568 80.0781 16.9089 80.4688 17C80.8724 17.0911 81.2435 17.2409 81.582 17.4492C81.9206 17.6576 82.207 17.9635 82.4414 18.3672C82.7018 18.8229 82.819 19.2982 82.793 19.793C82.7799 20.2747 82.5911 20.7109 82.2266 21.1016C81.862 21.4922 81.4388 21.7656 80.957 21.9219C80.4753 22.0651 79.987 22.1693 79.4922 22.2344C79.0495 22.2865 78.5872 22.2995 78.1055 22.2734C77.6367 22.2474 77.181 22.1693 76.7383 22.0391C76.3086 21.9219 75.9049 21.7396 75.5273 21.4922C75.1497 21.2318 74.8372 20.8932 74.5898 20.4766C74.4727 20.2682 74.4531 20.0729 74.5312 19.8906C74.6094 19.6953 74.7266 19.5521 74.8828 19.4609C75.0521 19.3568 75.2344 19.3177 75.4297 19.3438C75.638 19.3698 75.8073 19.487 75.9375 19.6953C76.1198 19.9948 76.3737 20.2227 76.6992 20.3789C77.0247 20.5352 77.3763 20.6458 77.7539 20.7109C78.1445 20.763 78.5352 20.776 78.9258 20.75C79.3164 20.7109 79.668 20.6589 79.9805 20.5938C80.1497 20.5547 80.319 20.5026 80.4883 20.4375C80.6706 20.3594 80.8203 20.2682 80.9375 20.1641C81.0677 20.0599 81.1589 19.9427 81.2109 19.8125C81.263 19.6693 81.2565 19.513 81.1914 19.3438C81.0612 19.0182 80.8398 18.7839 80.5273 18.6406C80.2279 18.4974 79.9089 18.4128 79.5703 18.3867C79.2318 18.3607 78.8867 18.3477 78.5352 18.3477C78.1836 18.3477 77.832 18.3346 77.4805 18.3086C77.1289 18.2695 76.7839 18.2044 76.4453 18.1133C76.1068 18.0221 75.7943 17.8724 75.5078 17.6641ZM95.2344 12.9961C95.651 12.944 96.0872 12.931 96.543 12.957C96.9987 12.9701 97.4349 13.0482 97.8516 13.1914C98.2682 13.3216 98.6458 13.5234 98.9844 13.7969C99.3229 14.0703 99.5833 14.4284 99.7656 14.8711C99.8958 15.1836 99.9609 15.5026 99.9609 15.8281C99.974 16.1406 99.9284 16.4466 99.8242 16.7461C99.7331 17.0326 99.5898 17.3125 99.3945 17.5859C99.2122 17.8464 98.9974 18.0872 98.75 18.3086C98.2161 18.7904 97.6302 19.2005 96.9922 19.5391C96.3542 19.8776 95.6836 20.138 94.9805 20.3203C94.681 20.3984 94.3685 20.4701 94.043 20.5352C93.7305 20.5872 93.4115 20.6133 93.0859 20.6133C92.7604 20.6133 92.4414 20.5807 92.1289 20.5156C91.8164 20.4375 91.5234 20.3138 91.25 20.1445C91.0547 20.0273 90.9375 19.8711 90.8984 19.6758C90.8203 19.4544 90.7357 19.2461 90.6445 19.0508C90.5534 18.8555 90.4622 18.6536 90.3711 18.4453C90.293 18.237 90.2279 18.0286 90.1758 17.8203C90.1237 17.612 90.0977 17.3971 90.0977 17.1758C90.0977 16.7331 90.1888 16.3164 90.3711 15.9258C90.5664 15.5221 90.8268 15.1706 91.1523 14.8711C91.6992 14.3503 92.3307 13.9336 93.0469 13.6211C93.763 13.3086 94.4922 13.1003 95.2344 12.9961ZM97.4414 14.6758C97.0898 14.5456 96.7122 14.4805 96.3086 14.4805C95.8789 14.4674 95.4492 14.513 95.0195 14.6172C94.5898 14.7083 94.1797 14.8385 93.7891 15.0078C93.4245 15.151 93.0469 15.3529 92.6562 15.6133C92.2786 15.8607 91.9987 16.1667 91.8164 16.5312C91.7122 16.7266 91.6602 16.9284 91.6602 17.1367C91.6732 17.332 91.7057 17.5339 91.7578 17.7422C91.8229 17.9375 91.901 18.1393 91.9922 18.3477C92.0964 18.543 92.1875 18.7383 92.2656 18.9336C92.474 18.9857 92.6042 19.0117 92.6562 19.0117C92.6823 19.0247 92.7148 19.0312 92.7539 19.0312C92.793 19.0312 92.8255 19.0312 92.8516 19.0312C93.112 19.0573 93.3464 19.0508 93.5547 19.0117C93.6979 19.0117 93.8802 18.9857 94.1016 18.9336C94.4401 18.8685 94.7656 18.7839 95.0781 18.6797C95.3906 18.5625 95.6771 18.4388 95.9375 18.3086C96.237 18.1654 96.5299 18.0091 96.8164 17.8398C97.1029 17.6706 97.3438 17.4948 97.5391 17.3125C97.6693 17.1953 97.793 17.0716 97.9102 16.9414C97.9753 16.8763 98.0208 16.8242 98.0469 16.7852C98.112 16.694 98.1641 16.6289 98.2031 16.5898C98.2422 16.5378 98.2747 16.4792 98.3008 16.4141C98.3529 16.3229 98.3789 16.2513 98.3789 16.1992C98.3919 16.1732 98.3984 16.1406 98.3984 16.1016C98.4115 16.0625 98.4245 16.0299 98.4375 16.0039V15.7891C98.4245 15.737 98.418 15.6979 98.418 15.6719C98.418 15.6458 98.4115 15.6198 98.3984 15.5938C98.3594 15.5026 98.3203 15.4375 98.2812 15.3984C98.2552 15.3464 98.2227 15.2943 98.1836 15.2422C98.1966 15.2552 98.1771 15.2357 98.125 15.1836C98.0859 15.1315 98.0599 15.099 98.0469 15.0859L97.8906 14.9297C97.8255 14.8906 97.7539 14.8451 97.6758 14.793C97.5977 14.7409 97.5195 14.7018 97.4414 14.6758ZM102.051 10.5938C102.181 9.76042 102.474 8.99219 102.93 8.28906C103.398 7.58594 103.965 6.98047 104.629 6.47266C105.007 6.17318 105.404 5.98438 105.82 5.90625C106.237 5.82812 106.667 5.91276 107.109 6.16016C107.448 6.35547 107.786 6.5638 108.125 6.78516C108.477 7.00651 108.75 7.29297 108.945 7.64453C109.076 7.86589 109.102 8.07422 109.023 8.26953C108.945 8.45182 108.822 8.59505 108.652 8.69922C108.483 8.79036 108.294 8.82292 108.086 8.79688C107.891 8.77083 107.734 8.64714 107.617 8.42578C107.552 8.30859 107.461 8.21094 107.344 8.13281C107.227 8.04167 107.116 7.96354 107.012 7.89844C106.895 7.83333 106.764 7.7487 106.621 7.64453C106.478 7.54036 106.335 7.47526 106.191 7.44922C106.074 7.41016 105.957 7.42318 105.84 7.48828C105.723 7.54036 105.605 7.61849 105.488 7.72266C105.384 7.8138 105.28 7.91797 105.176 8.03516C105.085 8.13932 105 8.23047 104.922 8.30859C104.453 8.80339 104.095 9.33724 103.848 9.91016C103.613 10.4831 103.503 11.1146 103.516 11.8047C103.529 12.2734 103.568 12.7422 103.633 13.2109C104.01 13.1849 104.388 13.1589 104.766 13.1328C105.156 13.1068 105.54 13.0807 105.918 13.0547C106.139 13.0286 106.322 13.1003 106.465 13.2695C106.621 13.4388 106.699 13.6276 106.699 13.8359C106.699 14.0573 106.621 14.2396 106.465 14.3828C106.322 14.513 106.139 14.5846 105.918 14.5977C105.579 14.6237 105.234 14.6497 104.883 14.6758C104.544 14.7018 104.206 14.7279 103.867 14.7539C103.906 14.9753 103.945 15.1966 103.984 15.418C104.023 15.6393 104.062 15.8607 104.102 16.082C104.258 17.0065 104.414 17.918 104.57 18.8164C104.74 19.7148 104.863 20.6328 104.941 21.5703C104.967 21.7917 104.896 21.974 104.727 22.1172C104.557 22.2734 104.368 22.3516 104.16 22.3516C103.939 22.3516 103.757 22.2734 103.613 22.1172C103.483 21.974 103.405 21.7917 103.379 21.5703C103.301 20.5286 103.164 19.5065 102.969 18.5039C102.773 17.4883 102.591 16.4727 102.422 15.457C102.396 15.3529 102.376 15.2487 102.363 15.1445C102.363 15.0404 102.35 14.9362 102.324 14.832C101.947 14.8581 101.562 14.8776 101.172 14.8906C100.794 14.9036 100.41 14.9102 100.02 14.9102C99.7721 14.9102 99.5898 14.832 99.4727 14.6758C99.3424 14.5065 99.2773 14.3242 99.2773 14.1289C99.2773 13.9336 99.3424 13.7578 99.4727 13.6016C99.5898 13.4323 99.7721 13.3477 100.02 13.3477C100.71 13.3477 101.4 13.3281 102.09 13.2891C102.025 12.8333 101.986 12.3841 101.973 11.9414C101.96 11.4987 101.986 11.0495 102.051 10.5938ZM113.223 9.92969C113.014 9.95573 112.832 9.88411 112.676 9.71484C112.52 9.54557 112.441 9.35677 112.441 9.14844C112.441 8.92708 112.52 8.7513 112.676 8.62109C112.832 8.47786 113.014 8.39323 113.223 8.36719C113.874 8.3151 114.518 8.28906 115.156 8.28906C115.794 8.28906 116.439 8.30859 117.09 8.34766C117.272 8.28255 117.467 8.29557 117.676 8.38672C118.887 8.47786 120.111 8.63411 121.348 8.85547C121.556 8.89453 121.712 9.01823 121.816 9.22656C121.921 9.4349 121.94 9.63021 121.875 9.8125C121.81 10.0339 121.686 10.1901 121.504 10.2812C121.335 10.3594 121.139 10.3854 120.918 10.3594C120.423 10.2682 119.935 10.1901 119.453 10.125C118.971 10.0599 118.483 10.0078 117.988 9.96875C117.806 10.8802 117.695 11.7917 117.656 12.7031C117.63 13.6146 117.663 14.5391 117.754 15.4766C117.845 16.4401 117.975 17.3971 118.145 18.3477C118.314 19.2852 118.49 20.2292 118.672 21.1797C118.711 21.401 118.685 21.6029 118.594 21.7852C118.516 21.9544 118.366 22.0716 118.145 22.1367C117.949 22.2018 117.747 22.1823 117.539 22.0781C117.344 21.974 117.227 21.8177 117.188 21.6094C116.979 20.5547 116.777 19.513 116.582 18.4844C116.4 17.4427 116.263 16.3945 116.172 15.3398C116.094 14.4154 116.074 13.4974 116.113 12.5859C116.152 11.6745 116.257 10.7695 116.426 9.87109C115.358 9.83203 114.29 9.85156 113.223 9.92969ZM125.645 12.9961C126.061 12.944 126.497 12.931 126.953 12.957C127.409 12.9701 127.845 13.0482 128.262 13.1914C128.678 13.3216 129.056 13.5234 129.395 13.7969C129.733 14.0703 129.993 14.4284 130.176 14.8711C130.306 15.1836 130.371 15.5026 130.371 15.8281C130.384 16.1406 130.339 16.4466 130.234 16.7461C130.143 17.0326 130 17.3125 129.805 17.5859C129.622 17.8464 129.408 18.0872 129.16 18.3086C128.626 18.7904 128.04 19.2005 127.402 19.5391C126.764 19.8776 126.094 20.138 125.391 20.3203C125.091 20.3984 124.779 20.4701 124.453 20.5352C124.141 20.5872 123.822 20.6133 123.496 20.6133C123.171 20.6133 122.852 20.5807 122.539 20.5156C122.227 20.4375 121.934 20.3138 121.66 20.1445C121.465 20.0273 121.348 19.8711 121.309 19.6758C121.23 19.4544 121.146 19.2461 121.055 19.0508C120.964 18.8555 120.872 18.6536 120.781 18.4453C120.703 18.237 120.638 18.0286 120.586 17.8203C120.534 17.612 120.508 17.3971 120.508 17.1758C120.508 16.7331 120.599 16.3164 120.781 15.9258C120.977 15.5221 121.237 15.1706 121.562 14.8711C122.109 14.3503 122.741 13.9336 123.457 13.6211C124.173 13.3086 124.902 13.1003 125.645 12.9961ZM127.852 14.6758C127.5 14.5456 127.122 14.4805 126.719 14.4805C126.289 14.4674 125.859 14.513 125.43 14.6172C125 14.7083 124.59 14.8385 124.199 15.0078C123.835 15.151 123.457 15.3529 123.066 15.6133C122.689 15.8607 122.409 16.1667 122.227 16.5312C122.122 16.7266 122.07 16.9284 122.07 17.1367C122.083 17.332 122.116 17.5339 122.168 17.7422C122.233 17.9375 122.311 18.1393 122.402 18.3477C122.507 18.543 122.598 18.7383 122.676 18.9336C122.884 18.9857 123.014 19.0117 123.066 19.0117C123.092 19.0247 123.125 19.0312 123.164 19.0312C123.203 19.0312 123.236 19.0312 123.262 19.0312C123.522 19.0573 123.757 19.0508 123.965 19.0117C124.108 19.0117 124.29 18.9857 124.512 18.9336C124.85 18.8685 125.176 18.7839 125.488 18.6797C125.801 18.5625 126.087 18.4388 126.348 18.3086C126.647 18.1654 126.94 18.0091 127.227 17.8398C127.513 17.6706 127.754 17.4948 127.949 17.3125C128.079 17.1953 128.203 17.0716 128.32 16.9414C128.385 16.8763 128.431 16.8242 128.457 16.7852C128.522 16.694 128.574 16.6289 128.613 16.5898C128.652 16.5378 128.685 16.4792 128.711 16.4141C128.763 16.3229 128.789 16.2513 128.789 16.1992C128.802 16.1732 128.809 16.1406 128.809 16.1016C128.822 16.0625 128.835 16.0299 128.848 16.0039V15.7891C128.835 15.737 128.828 15.6979 128.828 15.6719C128.828 15.6458 128.822 15.6198 128.809 15.5938C128.77 15.5026 128.73 15.4375 128.691 15.3984C128.665 15.3464 128.633 15.2943 128.594 15.2422C128.607 15.2552 128.587 15.2357 128.535 15.1836C128.496 15.1315 128.47 15.099 128.457 15.0859L128.301 14.9297C128.236 14.8906 128.164 14.8451 128.086 14.793C128.008 14.7409 127.93 14.7018 127.852 14.6758ZM133.242 22.2539C133.06 22.319 132.858 22.2995 132.637 22.1953C132.428 22.0911 132.311 21.9349 132.285 21.7266C132.103 20.5807 131.986 19.4479 131.934 18.3281C131.895 17.1953 131.875 16.056 131.875 14.9102C131.875 14.7148 131.927 14.5586 132.031 14.4414C132.135 14.3242 132.259 14.2461 132.402 14.207C132.546 14.168 132.695 14.1615 132.852 14.1875C133.008 14.2135 133.138 14.2786 133.242 14.3828C133.542 14.1354 133.861 13.9206 134.199 13.7383C134.538 13.556 134.876 13.4388 135.215 13.3867C135.566 13.3216 135.911 13.3411 136.25 13.4453C136.589 13.5365 136.908 13.7383 137.207 14.0508C137.454 14.3112 137.669 14.5911 137.852 14.8906C138.034 15.1771 138.197 15.4831 138.34 15.8086C138.535 15.3138 138.809 14.8581 139.16 14.4414C139.512 14.0247 139.961 13.7448 140.508 13.6016C140.911 13.4974 141.23 13.5234 141.465 13.6797C141.699 13.8229 141.921 14.0508 142.129 14.3633C142.35 14.6888 142.552 15.0208 142.734 15.3594C142.93 15.6979 143.112 16.043 143.281 16.3945C143.451 16.7461 143.613 17.0977 143.77 17.4492C143.926 17.8008 144.082 18.1458 144.238 18.4844C144.421 18.862 144.577 19.2396 144.707 19.6172C144.85 19.9818 144.941 20.3724 144.98 20.7891C145.007 21.0104 144.928 21.1992 144.746 21.3555C144.577 21.4987 144.395 21.5703 144.199 21.5703C143.978 21.5703 143.796 21.4987 143.652 21.3555C143.522 21.1992 143.444 21.0104 143.418 20.7891C143.392 20.4766 143.307 20.1771 143.164 19.8906C143.034 19.5911 142.904 19.2982 142.773 19.0117C142.63 18.7122 142.487 18.4062 142.344 18.0938C142.214 17.7812 142.077 17.4753 141.934 17.1758C141.79 16.8763 141.634 16.5768 141.465 16.2773C141.309 15.9779 141.139 15.6849 140.957 15.3984C140.931 15.3594 140.905 15.3203 140.879 15.2812C140.853 15.2422 140.827 15.2031 140.801 15.1641C140.54 15.3073 140.352 15.444 140.234 15.5742C140.117 15.7044 140.007 15.8802 139.902 16.1016C139.811 16.2969 139.733 16.5052 139.668 16.7266C139.616 16.9349 139.57 17.1497 139.531 17.3711C139.453 17.7878 139.395 18.224 139.355 18.6797C139.329 19.0182 139.329 19.3438 139.355 19.6562C139.395 19.9688 139.382 20.2943 139.316 20.6328C139.277 20.8411 139.154 20.9974 138.945 21.1016C138.75 21.2057 138.555 21.2318 138.359 21.1797C138.177 21.1276 138.04 21.0365 137.949 20.9062C137.871 20.763 137.819 20.6003 137.793 20.418C137.741 20.0013 137.682 19.5716 137.617 19.1289C137.552 18.6862 137.467 18.25 137.363 17.8203C137.259 17.3776 137.122 16.9544 136.953 16.5508C136.797 16.1341 136.589 15.75 136.328 15.3984C136.146 15.1641 135.957 15.0078 135.762 14.9297C135.579 14.8516 135.352 14.8841 135.078 15.0273C134.779 15.1836 134.486 15.3724 134.199 15.5938C133.913 15.8151 133.659 16.0625 133.438 16.3359C133.451 17.1693 133.477 18.0026 133.516 18.8359C133.568 19.6562 133.659 20.4766 133.789 21.2969C133.815 21.5182 133.783 21.7201 133.691 21.9023C133.613 22.0716 133.464 22.1888 133.242 22.2539ZM150.938 12.9961C151.354 12.944 151.79 12.931 152.246 12.957C152.702 12.9701 153.138 13.0482 153.555 13.1914C153.971 13.3216 154.349 13.5234 154.688 13.7969C155.026 14.0703 155.286 14.4284 155.469 14.8711C155.599 15.1836 155.664 15.5026 155.664 15.8281C155.677 16.1406 155.632 16.4466 155.527 16.7461C155.436 17.0326 155.293 17.3125 155.098 17.5859C154.915 17.8464 154.701 18.0872 154.453 18.3086C153.919 18.7904 153.333 19.2005 152.695 19.5391C152.057 19.8776 151.387 20.138 150.684 20.3203C150.384 20.3984 150.072 20.4701 149.746 20.5352C149.434 20.5872 149.115 20.6133 148.789 20.6133C148.464 20.6133 148.145 20.5807 147.832 20.5156C147.52 20.4375 147.227 20.3138 146.953 20.1445C146.758 20.0273 146.641 19.8711 146.602 19.6758C146.523 19.4544 146.439 19.2461 146.348 19.0508C146.257 18.8555 146.165 18.6536 146.074 18.4453C145.996 18.237 145.931 18.0286 145.879 17.8203C145.827 17.612 145.801 17.3971 145.801 17.1758C145.801 16.7331 145.892 16.3164 146.074 15.9258C146.27 15.5221 146.53 15.1706 146.855 14.8711C147.402 14.3503 148.034 13.9336 148.75 13.6211C149.466 13.3086 150.195 13.1003 150.938 12.9961ZM153.145 14.6758C152.793 14.5456 152.415 14.4805 152.012 14.4805C151.582 14.4674 151.152 14.513 150.723 14.6172C150.293 14.7083 149.883 14.8385 149.492 15.0078C149.128 15.151 148.75 15.3529 148.359 15.6133C147.982 15.8607 147.702 16.1667 147.52 16.5312C147.415 16.7266 147.363 16.9284 147.363 17.1367C147.376 17.332 147.409 17.5339 147.461 17.7422C147.526 17.9375 147.604 18.1393 147.695 18.3477C147.799 18.543 147.891 18.7383 147.969 18.9336C148.177 18.9857 148.307 19.0117 148.359 19.0117C148.385 19.0247 148.418 19.0312 148.457 19.0312C148.496 19.0312 148.529 19.0312 148.555 19.0312C148.815 19.0573 149.049 19.0508 149.258 19.0117C149.401 19.0117 149.583 18.9857 149.805 18.9336C150.143 18.8685 150.469 18.7839 150.781 18.6797C151.094 18.5625 151.38 18.4388 151.641 18.3086C151.94 18.1654 152.233 18.0091 152.52 17.8398C152.806 17.6706 153.047 17.4948 153.242 17.3125C153.372 17.1953 153.496 17.0716 153.613 16.9414C153.678 16.8763 153.724 16.8242 153.75 16.7852C153.815 16.694 153.867 16.6289 153.906 16.5898C153.945 16.5378 153.978 16.4792 154.004 16.4141C154.056 16.3229 154.082 16.2513 154.082 16.1992C154.095 16.1732 154.102 16.1406 154.102 16.1016C154.115 16.0625 154.128 16.0299 154.141 16.0039V15.7891C154.128 15.737 154.121 15.6979 154.121 15.6719C154.121 15.6458 154.115 15.6198 154.102 15.5938C154.062 15.5026 154.023 15.4375 153.984 15.3984C153.958 15.3464 153.926 15.2943 153.887 15.2422C153.9 15.2552 153.88 15.2357 153.828 15.1836C153.789 15.1315 153.763 15.099 153.75 15.0859L153.594 14.9297C153.529 14.8906 153.457 14.8451 153.379 14.793C153.301 14.7409 153.223 14.7018 153.145 14.6758ZM157.129 14.0508C157.142 13.8034 157.233 13.6211 157.402 13.5039C157.572 13.3737 157.754 13.3086 157.949 13.3086C158.145 13.3086 158.314 13.3737 158.457 13.5039C158.613 13.6211 158.685 13.8034 158.672 14.0508C158.672 14.1289 158.665 14.2135 158.652 14.3047C158.652 14.3828 158.652 14.4609 158.652 14.5391C159.069 14.3307 159.505 14.1549 159.961 14.0117C160.43 13.8555 160.892 13.7578 161.348 13.7188C161.816 13.6797 162.266 13.7188 162.695 13.8359C163.138 13.9401 163.542 14.1484 163.906 14.4609C164.089 14.6302 164.167 14.8125 164.141 15.0078C164.128 15.2031 164.049 15.3724 163.906 15.5156C163.776 15.6458 163.607 15.7305 163.398 15.7695C163.19 15.7956 162.988 15.7305 162.793 15.5742C162.65 15.457 162.487 15.3724 162.305 15.3203C162.135 15.2682 161.947 15.2487 161.738 15.2617C161.543 15.2617 161.341 15.2812 161.133 15.3203C160.938 15.3594 160.749 15.4049 160.566 15.457C159.876 15.6784 159.232 15.9714 158.633 16.3359C158.659 16.974 158.698 17.612 158.75 18.25C158.802 18.7839 158.848 19.3372 158.887 19.9102C158.926 20.4701 159.036 21.0039 159.219 21.5117C159.297 21.7461 159.277 21.9414 159.16 22.0977C159.056 22.2669 158.906 22.3776 158.711 22.4297C158.529 22.4818 158.333 22.4688 158.125 22.3906C157.93 22.3125 157.793 22.1562 157.715 21.9219C157.611 21.6224 157.539 21.3164 157.5 21.0039C157.461 20.6914 157.422 20.3789 157.383 20.0664C157.357 19.7669 157.324 19.4674 157.285 19.168C157.259 18.8555 157.233 18.5495 157.207 18.25C157.142 17.5469 157.096 16.8503 157.07 16.1602C157.057 15.457 157.077 14.7539 157.129 14.0508ZM165.312 14.0508C165.326 13.8034 165.417 13.6211 165.586 13.5039C165.755 13.3737 165.938 13.3086 166.133 13.3086C166.328 13.3086 166.497 13.3737 166.641 13.5039C166.797 13.6211 166.868 13.8034 166.855 14.0508C166.855 14.1289 166.849 14.2135 166.836 14.3047C166.836 14.3828 166.836 14.4609 166.836 14.5391C167.253 14.3307 167.689 14.1549 168.145 14.0117C168.613 13.8555 169.076 13.7578 169.531 13.7188C170 13.6797 170.449 13.7188 170.879 13.8359C171.322 13.9401 171.725 14.1484 172.09 14.4609C172.272 14.6302 172.35 14.8125 172.324 15.0078C172.311 15.2031 172.233 15.3724 172.09 15.5156C171.96 15.6458 171.79 15.7305 171.582 15.7695C171.374 15.7956 171.172 15.7305 170.977 15.5742C170.833 15.457 170.671 15.3724 170.488 15.3203C170.319 15.2682 170.13 15.2487 169.922 15.2617C169.727 15.2617 169.525 15.2812 169.316 15.3203C169.121 15.3594 168.932 15.4049 168.75 15.457C168.06 15.6784 167.415 15.9714 166.816 16.3359C166.842 16.974 166.882 17.612 166.934 18.25C166.986 18.7839 167.031 19.3372 167.07 19.9102C167.109 20.4701 167.22 21.0039 167.402 21.5117C167.48 21.7461 167.461 21.9414 167.344 22.0977C167.24 22.2669 167.09 22.3776 166.895 22.4297C166.712 22.4818 166.517 22.4688 166.309 22.3906C166.113 22.3125 165.977 22.1562 165.898 21.9219C165.794 21.6224 165.723 21.3164 165.684 21.0039C165.645 20.6914 165.605 20.3789 165.566 20.0664C165.54 19.7669 165.508 19.4674 165.469 19.168C165.443 18.8555 165.417 18.5495 165.391 18.25C165.326 17.5469 165.28 16.8503 165.254 16.1602C165.241 15.457 165.26 14.7539 165.312 14.0508ZM177.988 12.9961C178.405 12.944 178.841 12.931 179.297 12.957C179.753 12.9701 180.189 13.0482 180.605 13.1914C181.022 13.3216 181.4 13.5234 181.738 13.7969C182.077 14.0703 182.337 14.4284 182.52 14.8711C182.65 15.1836 182.715 15.5026 182.715 15.8281C182.728 16.1406 182.682 16.4466 182.578 16.7461C182.487 17.0326 182.344 17.3125 182.148 17.5859C181.966 17.8464 181.751 18.0872 181.504 18.3086C180.97 18.7904 180.384 19.2005 179.746 19.5391C179.108 19.8776 178.438 20.138 177.734 20.3203C177.435 20.3984 177.122 20.4701 176.797 20.5352C176.484 20.5872 176.165 20.6133 175.84 20.6133C175.514 20.6133 175.195 20.5807 174.883 20.5156C174.57 20.4375 174.277 20.3138 174.004 20.1445C173.809 20.0273 173.691 19.8711 173.652 19.6758C173.574 19.4544 173.49 19.2461 173.398 19.0508C173.307 18.8555 173.216 18.6536 173.125 18.4453C173.047 18.237 172.982 18.0286 172.93 17.8203C172.878 17.612 172.852 17.3971 172.852 17.1758C172.852 16.7331 172.943 16.3164 173.125 15.9258C173.32 15.5221 173.581 15.1706 173.906 14.8711C174.453 14.3503 175.085 13.9336 175.801 13.6211C176.517 13.3086 177.246 13.1003 177.988 12.9961ZM180.195 14.6758C179.844 14.5456 179.466 14.4805 179.062 14.4805C178.633 14.4674 178.203 14.513 177.773 14.6172C177.344 14.7083 176.934 14.8385 176.543 15.0078C176.178 15.151 175.801 15.3529 175.41 15.6133C175.033 15.8607 174.753 16.1667 174.57 16.5312C174.466 16.7266 174.414 16.9284 174.414 17.1367C174.427 17.332 174.46 17.5339 174.512 17.7422C174.577 17.9375 174.655 18.1393 174.746 18.3477C174.85 18.543 174.941 18.7383 175.02 18.9336C175.228 18.9857 175.358 19.0117 175.41 19.0117C175.436 19.0247 175.469 19.0312 175.508 19.0312C175.547 19.0312 175.579 19.0312 175.605 19.0312C175.866 19.0573 176.1 19.0508 176.309 19.0117C176.452 19.0117 176.634 18.9857 176.855 18.9336C177.194 18.8685 177.52 18.7839 177.832 18.6797C178.145 18.5625 178.431 18.4388 178.691 18.3086C178.991 18.1654 179.284 18.0091 179.57 17.8398C179.857 17.6706 180.098 17.4948 180.293 17.3125C180.423 17.1953 180.547 17.0716 180.664 16.9414C180.729 16.8763 180.775 16.8242 180.801 16.7852C180.866 16.694 180.918 16.6289 180.957 16.5898C180.996 16.5378 181.029 16.4792 181.055 16.4141C181.107 16.3229 181.133 16.2513 181.133 16.1992C181.146 16.1732 181.152 16.1406 181.152 16.1016C181.165 16.0625 181.178 16.0299 181.191 16.0039V15.7891C181.178 15.737 181.172 15.6979 181.172 15.6719C181.172 15.6458 181.165 15.6198 181.152 15.5938C181.113 15.5026 181.074 15.4375 181.035 15.3984C181.009 15.3464 180.977 15.2943 180.938 15.2422C180.951 15.2552 180.931 15.2357 180.879 15.1836C180.84 15.1315 180.814 15.099 180.801 15.0859L180.645 14.9297C180.579 14.8906 180.508 14.8451 180.43 14.793C180.352 14.7409 180.273 14.7018 180.195 14.6758ZM195.84 14.4805C195.762 14.8451 195.671 15.2096 195.566 15.5742C195.462 15.9258 195.345 16.2773 195.215 16.6289C195.072 16.9935 194.935 17.3581 194.805 17.7227C194.674 18.0742 194.518 18.4193 194.336 18.7578C194.167 19.0833 193.984 19.4023 193.789 19.7148C193.594 20.0143 193.424 20.3333 193.281 20.6719C193.151 20.9714 193.014 21.2708 192.871 21.5703C192.741 21.8568 192.572 22.1302 192.363 22.3906C192.259 22.5208 192.142 22.599 192.012 22.625C191.882 22.651 191.751 22.638 191.621 22.5859C191.504 22.5469 191.387 22.4753 191.27 22.3711C191.165 22.2669 191.094 22.1562 191.055 22.0391C190.833 21.4271 190.671 20.8151 190.566 20.2031C190.462 19.5781 190.326 18.9531 190.156 18.3281C190.117 18.1458 190.072 17.9701 190.02 17.8008C189.98 17.6315 189.935 17.4622 189.883 17.293C189.779 17.5924 189.661 17.8854 189.531 18.1719C189.414 18.4583 189.284 18.7513 189.141 19.0508C188.984 19.3503 188.828 19.6562 188.672 19.9688C188.516 20.2812 188.353 20.5872 188.184 20.8867C188.04 21.1862 187.871 21.4661 187.676 21.7266C187.48 21.974 187.246 22.1888 186.973 22.3711C186.751 22.5143 186.523 22.5273 186.289 22.4102C186.068 22.293 185.918 22.1237 185.84 21.9023C185.645 21.3164 185.469 20.724 185.312 20.125C185.156 19.513 185 18.9076 184.844 18.3086C184.688 17.6966 184.525 17.0977 184.355 16.5117C184.186 15.9128 183.991 15.3203 183.77 14.7344C183.691 14.5391 183.711 14.3503 183.828 14.168C183.958 13.9727 184.115 13.8424 184.297 13.7773C184.518 13.7122 184.714 13.7383 184.883 13.8555C185.065 13.9727 185.189 14.1289 185.254 14.3242C185.618 15.2617 185.918 16.2057 186.152 17.1562C186.387 18.1068 186.634 19.0638 186.895 20.0273L187.012 19.793C187.155 19.5065 187.292 19.2266 187.422 18.9531C187.565 18.6797 187.708 18.3997 187.852 18.1133C188.008 17.8138 188.145 17.5078 188.262 17.1953C188.392 16.8698 188.509 16.5443 188.613 16.2188C188.717 15.9062 188.815 15.5938 188.906 15.2812C188.997 14.9688 189.056 14.6432 189.082 14.3047C189.095 14.0964 189.167 13.9271 189.297 13.7969C189.44 13.6667 189.596 13.5885 189.766 13.5625C189.948 13.5365 190.117 13.569 190.273 13.6602C190.43 13.7383 190.54 13.888 190.605 14.1094C190.788 14.7734 190.977 15.431 191.172 16.082C191.367 16.7331 191.543 17.3906 191.699 18.0547C191.764 18.3281 191.823 18.6016 191.875 18.875C191.927 19.1354 191.986 19.3958 192.051 19.6562C192.194 19.3438 192.357 19.0443 192.539 18.7578C192.734 18.4583 192.91 18.1523 193.066 17.8398C193.353 17.2539 193.6 16.6419 193.809 16.0039C194.03 15.3529 194.206 14.7083 194.336 14.0703C194.375 13.849 194.492 13.6862 194.688 13.582C194.896 13.4779 195.098 13.4583 195.293 13.5234C195.514 13.5885 195.671 13.7122 195.762 13.8945C195.853 14.0768 195.879 14.2721 195.84 14.4805Z" fill="#292524"/>
</svg>
